<?xml version="1.0" standalone="no"?>
<!DOCTYPE svg PUBLIC "-//W3C//DTD SVG 20010904//EN"
 "http://www.w3.org/TR/2001/REC-SVG-20010904/DTD/svg10.dtd">
<svg version="1.0" xmlns="http://www.w3.org/2000/svg"
 width="128.000000pt" height="128.000000pt" viewBox="0 0 128.000000 128.000000"
 preserveAspectRatio="xMidYMid meet">
<metadata>
Created by potrace 1.11, written by Peter Selinger 2001-2013
</metadata>
<g transform="translate(0.000000,128.000000) scale(0.100000,-0.100000)"
fill="#000000" stroke="none">
<path d="M308 1121 c-2 -68 -6 -86 -18 -87 -8 -1 -22 -2 -31 -3 -11 -1 -15
-10 -13 -32 l2 -30 -56 1 c-114 3 -119 2 -118 -22 1 -22 5 -23 86 -24 l85 -1
0 -34 0 -34 -85 -5 c-77 -5 -85 -7 -85 -25 0 -18 8 -20 84 -25 l85 -5 2 -30
c1 -16 -2 -32 -6 -35 -5 -3 -42 -5 -84 -4 -66 1 -76 -1 -82 -18 -3 -11 -3 -22
0 -25 3 -4 43 -7 89 -7 l82 -1 0 -35 0 -35 -71 -1 c-85 -1 -107 -8 -102 -31 3
-15 16 -18 83 -20 44 0 83 -2 86 -2 3 -1 5 -16 5 -33 l-1 -33 -85 -5 c-80 -5
-85 -6 -86 -27 -1 -22 2 -23 85 -23 l87 0 1 -35 c1 -38 0 -39 -87 -36 -66 1
-90 -6 -90 -29 0 -17 7 -20 43 -21 126 -2 132 -3 133 -24 1 -11 2 -25 3 -31 1
-6 13 -11 29 -10 l27 1 3 -87 c3 -84 4 -88 25 -84 20 3 22 9 24 80 0 43 4 80
8 84 3 4 20 7 36 8 l29 1 0 -89 c0 -87 1 -89 23 -86 20 3 22 9 27 88 l5 85 35
0 34 0 1 -84 c0 -79 1 -84 23 -87 24 -4 23 -9 25 101 l2 70 35 0 35 0 2 -80
c1 -44 2 -83 2 -87 1 -5 11 -6 24 -4 20 3 22 9 24 77 0 41 2 79 2 85 1 6 17
11 36 11 l35 0 0 -87 c0 -84 1 -87 23 -86 21 1 22 6 27 86 l5 85 33 1 c23 1
32 -3 33 -15 0 -9 2 -47 2 -86 2 -66 3 -70 26 -70 23 0 23 3 25 85 l1 85 28
-1 c15 0 27 5 28 10 1 6 2 20 3 31 1 21 7 22 129 24 44 1 48 3 45 24 -3 21 -8
22 -81 23 -42 0 -80 4 -84 8 -4 4 -8 21 -9 37 l-1 29 87 0 c87 0 88 0 88 25 0
25 -1 25 -87 25 l-87 0 -1 35 c0 19 4 35 11 36 6 0 45 2 86 2 70 2 75 3 76 25
1 12 -1 22 -5 23 -3 0 -42 1 -86 2 l-80 2 0 35 0 35 80 2 c44 1 83 2 86 2 4 1
6 11 5 24 -1 20 -6 22 -71 23 -38 1 -77 2 -86 3 -12 1 -16 10 -16 36 l1 35 87
0 c86 0 87 0 87 25 0 25 -1 25 -88 25 l-87 0 1 35 c1 19 5 35 11 36 5 1 44 1
85 1 73 0 76 1 78 24 2 23 -2 24 -56 25 -31 1 -69 0 -84 -1 -17 -1 -29 4 -30
12 0 7 -2 18 -3 23 -2 6 -3 15 -4 21 0 5 -13 10 -28 10 -31 -1 -30 -4 -32 98
-1 69 -2 73 -23 72 -22 -1 -23 -6 -25 -76 -1 -41 -2 -80 -2 -85 -1 -6 -17 -11
-36 -11 l-35 0 0 87 c0 83 -1 86 -22 85 -22 -1 -23 -6 -28 -86 l-5 -85 -32 -1
c-18 -1 -33 2 -34 5 0 3 -1 42 -2 86 -2 75 -3 80 -24 81 -25 1 -25 3 -25 -98
-1 -70 -5 -76 -48 -74 -24 1 -25 4 -27 71 -2 107 -1 104 -23 102 -25 -2 -27
-9 -26 -90 2 -73 -3 -82 -46 -83 l-28 0 0 87 c0 86 0 87 -25 87 -25 0 -25 -1
-25 -88 l0 -87 -35 1 c-29 1 -35 5 -36 23 0 13 -1 51 -2 86 -2 56 -4 62 -24
63 -21 1 -22 -3 -25 -85z m667 -140 c6 -1 10 -120 9 -338 -1 -186 -2 -340 -3
-343 -2 -7 -664 -6 -676 2 -6 4 -10 127 -9 345 1 186 2 338 3 338 154 0 669
-3 676 -4z"/>
<path d="M342 934 c-11 -12 -11 -18 -2 -29 15 -19 28 -19 45 -1 12 12 11 16
-4 30 -21 19 -22 19 -39 0z"/>
<path d="M442 869 c-43 -16 -47 -34 -49 -228 -2 -200 5 -237 44 -252 27 -10
365 -12 401 -3 43 12 49 45 48 251 -1 255 18 236 -236 237 -105 1 -199 -2
-208 -5z"/>
<path d="M893 376 c-9 -11 -8 -18 8 -32 18 -16 21 -16 36 -1 13 13 14 19 3 31
-15 19 -31 20 -47 2z"/>
</g>
</svg>
