<?xml version="1.0" standalone="no"?>
<!DOCTYPE svg PUBLIC "-//W3C//DTD SVG 20010904//EN"
 "http://www.w3.org/TR/2001/REC-SVG-20010904/DTD/svg10.dtd">
<svg version="1.0" xmlns="http://www.w3.org/2000/svg"
 width="1020.000000pt" height="1020.000000pt" viewBox="0 0 1020.000000 1020.000000"
 preserveAspectRatio="xMidYMid meet">
<metadata>
Created by potrace 1.11, written by Peter Selinger 2001-2013
</metadata>
<g transform="translate(0.000000,1020.000000) scale(0.100000,-0.100000)"
fill="#000000" stroke="none">
<path d="M9464 8556 c-19 -21 -36 -132 -59 -397 -9 -106 -32 -307 -40 -354
-16 -97 -30 -129 -66 -152 -50 -32 -80 -60 -83 -75 -1 -7 -6 -19 -10 -27 -5
-8 -13 -31 -17 -50 -18 -88 -26 -116 -44 -156 -8 -17 -19 -41 -25 -55 -20 -46
-51 -93 -92 -142 -31 -36 -60 -131 -64 -208 -4 -67 -9 -143 -13 -192 -2 -28
-51 -78 -98 -100 -76 -36 -86 -60 -98 -233 -18 -260 -137 -630 -250 -778 -20
-26 -42 -47 -49 -47 -25 0 -103 -48 -145 -89 -23 -23 -43 -41 -45 -41 -2 0
-98 -93 -213 -206 -114 -114 -232 -223 -262 -243 l-54 -36 -126 1 c-116 1
-164 5 -231 20 -14 3 -32 7 -41 9 -9 2 -49 13 -90 25 -116 35 -134 32 -276
-36 -50 -24 -102 -45 -115 -46 -28 -2 -88 20 -88 33 0 5 -5 9 -10 9 -17 0 -90
71 -108 105 -9 17 -18 44 -18 60 -1 17 -2 40 -3 52 -1 32 -39 40 -191 41 -74
1 -146 4 -160 7 -14 3 -43 7 -64 10 -22 3 -45 10 -51 15 -7 5 -14 7 -17 4 -3
-2 -25 3 -49 12 -156 58 -264 136 -359 257 -48 61 -115 84 -270 92 -107 6
-243 16 -275 20 -16 2 -64 7 -105 10 -41 4 -88 9 -105 11 -16 2 -88 4 -160 5
-176 1 -299 -22 -333 -63 -16 -20 -7 -59 19 -87 11 -12 18 -21 17 -22 -43 -11
-170 -30 -298 -44 -55 -6 -76 -9 -140 -20 -106 -18 -139 -41 -124 -88 5 -12 7
-25 6 -28 0 -3 17 -23 39 -44 45 -45 47 -54 18 -78 -19 -16 -155 -84 -172 -86
-4 0 -20 -7 -35 -15 -79 -41 -287 -78 -442 -79 -192 -2 -307 26 -469 111 -116
62 -159 74 -198 56 -23 -12 -30 -22 -31 -47 -1 -18 -4 -41 -6 -52 -3 -11 -5
-23 -5 -27 -2 -14 -41 -8 -69 9 -15 10 -72 62 -127 115 -159 154 -212 196
-277 217 -50 16 -109 61 -194 145 -99 98 -166 189 -160 218 2 12 -37 37 -57
38 -42 0 -78 35 -115 110 -20 41 -40 77 -44 78 -5 2 -8 7 -8 12 0 4 -19 38
-41 76 -23 37 -42 72 -43 78 -1 6 -7 20 -13 31 -26 47 -37 109 -48 270 -3 44
-7 87 -9 95 -1 8 -6 35 -10 60 -11 65 -12 73 -19 90 -4 12 -29 101 -33 120 0
3 -6 18 -12 33 -7 16 -12 34 -12 41 0 7 -3 16 -7 20 -4 3 -8 13 -9 20 -1 7 -9
29 -17 47 -8 19 -32 75 -52 124 -21 50 -48 112 -61 139 -13 28 -24 56 -24 63
0 7 -5 13 -10 13 -6 0 -9 3 -8 8 1 4 -4 21 -11 37 -27 67 -62 165 -62 170 0 2
-8 25 -19 50 -11 25 -19 46 -19 48 0 1 -2 9 -5 17 -11 34 -45 157 -50 180 -2
14 -7 32 -10 40 -3 8 -8 26 -10 40 -3 14 -12 60 -20 103 -9 43 -17 95 -19 115
-1 20 -6 43 -10 50 -5 6 -5 12 0 12 8 0 7 30 -1 111 -4 38 -27 89 -48 107 -24
20 -76 23 -114 7 -64 -26 -64 -29 -59 -235 3 -102 7 -210 10 -240 3 -30 7 -84
10 -120 4 -57 11 -129 20 -195 1 -11 3 -20 4 -20 2 0 4 -16 5 -36 1 -19 8 -49
15 -67 18 -42 7 -189 -21 -297 -21 -83 -12 -146 36 -247 61 -126 68 -166 51
-261 -3 -17 -8 -45 -10 -62 -3 -16 -8 -41 -11 -55 -3 -14 -10 -45 -16 -70 -20
-84 -14 -161 18 -226 15 -32 31 -61 34 -64 13 -11 49 -90 62 -136 15 -52 15
-92 4 -214 -7 -72 -9 -125 -7 -182 1 -15 8 -33 16 -42 27 -26 36 -69 41 -181
2 -60 6 -153 8 -205 2 -53 10 -111 19 -131 8 -19 43 -64 78 -100 98 -98 141
-160 183 -264 35 -86 88 -198 96 -205 14 -11 71 -139 86 -190 16 -57 41 -150
48 -185 5 -19 7 -30 21 -95 11 -50 15 -76 20 -110 3 -19 8 -45 10 -57 5 -22
13 -77 21 -148 3 -22 7 -83 9 -135 7 -161 23 -231 57 -243 15 -5 57 12 76 30
31 30 53 35 77 19 35 -23 119 -166 145 -247 17 -51 29 -73 45 -79 22 -8 32
-26 61 -114 9 -27 26 -63 37 -80 37 -51 133 -144 241 -231 21 -16 47 -39 60
-50 12 -11 44 -38 70 -60 27 -22 59 -49 71 -60 66 -59 152 -134 188 -167 36
-32 159 -111 177 -114 56 -8 84 -22 124 -62 26 -26 49 -57 52 -69 4 -13 10
-23 14 -23 4 0 11 -12 15 -27 8 -29 10 -40 18 -108 10 -72 53 -155 82 -155 8
0 39 11 69 25 82 38 101 44 153 50 97 12 119 16 153 26 19 7 43 19 53 27 10 9
37 16 65 16 39 1 62 -8 132 -47 107 -61 208 -96 267 -92 31 2 61 14 105 43
l61 40 116 -3 c111 -4 155 -8 211 -22 14 -3 34 -7 45 -8 32 -5 48 -10 73 -23
12 -7 22 -10 22 -7 0 4 19 -8 41 -26 44 -35 69 -80 69 -126 1 -87 102 -90 153
-4 36 62 43 63 397 66 162 2 304 6 315 8 11 3 28 6 38 6 10 1 17 9 17 19 0 22
22 43 65 65 37 18 121 13 173 -10 21 -9 39 -17 42 -17 3 -1 21 -9 40 -19 81
-39 139 -27 212 44 24 24 59 52 76 62 38 22 111 30 130 15 6 -6 12 -7 12 -4 0
9 58 -31 85 -59 11 -11 38 -45 60 -75 46 -64 70 -89 105 -111 50 -31 78 2 81
96 4 103 43 189 116 259 44 42 194 121 261 137 55 14 74 23 110 52 43 35 184
178 225 227 52 63 50 60 79 110 32 55 67 89 99 95 42 8 73 39 111 111 46 87
66 102 100 75 13 -11 30 -38 38 -60 7 -22 24 -50 37 -63 23 -22 24 -22 58 -4
38 21 62 68 94 186 21 79 38 130 65 192 9 21 16 39 15 40 -1 6 27 55 65 111
37 56 109 127 130 127 13 1 92 96 123 148 21 35 96 181 98 192 2 8 24 63 34
85 5 11 19 52 31 90 26 86 27 88 29 97 3 18 51 119 63 133 7 9 39 43 71 75 32
34 58 69 59 82 0 13 2 34 4 48 1 14 5 55 8 92 6 83 23 116 80 163 51 42 66 75
72 165 3 36 7 71 9 78 2 6 0 12 -6 12 -6 0 -7 5 -4 11 4 5 9 25 12 42 3 18 7
39 8 47 2 8 4 17 4 20 1 3 15 20 31 38 17 18 30 41 31 50 0 9 2 26 4 37 15 82
16 95 30 420 14 330 20 353 102 431 47 45 56 62 55 104 0 22 -20 158 -28 200
-17 78 -10 171 19 252 30 89 32 94 45 149 18 74 0 216 -39 304 -69 157 -62
218 50 449 32 67 61 133 65 148 6 28 14 143 21 298 4 111 23 165 74 218 50 52
69 96 75 171 2 31 5 61 6 66 1 6 2 12 1 15 -2 3 -4 46 -5 95 -4 124 -13 151
-47 147 -3 -1 -30 5 -60 13 -66 18 -91 18 -105 1z m-4389 -3587 c27 -16 57
-22 123 -25 48 -3 94 -5 102 -5 29 -1 123 -30 175 -55 30 -13 56 -24 59 -24 2
0 17 -5 33 -12 35 -14 29 -12 148 -43 136 -36 152 -47 165 -111 6 -29 16 -57
23 -62 7 -5 36 -15 66 -21 53 -11 170 -65 222 -102 15 -10 31 -19 36 -19 12 0
35 -29 62 -76 21 -37 79 -83 141 -110 14 -7 33 -18 43 -26 17 -13 13 -14 -39
-16 -103 -2 -154 -23 -154 -62 0 -38 -30 -47 -115 -34 -88 13 -126 9 -151 -16
-59 -61 -70 -70 -85 -70 -8 0 -19 -3 -23 -7 -4 -5 -22 -9 -39 -9 -31 -1 -116
-11 -147 -17 -8 -2 -29 -11 -47 -20 -57 -30 -88 -23 -258 58 -103 49 -153 69
-207 81 -13 3 -93 7 -178 9 -85 2 -175 8 -200 15 -25 6 -56 13 -69 15 -33 5
-97 -27 -151 -76 -65 -59 -124 -98 -159 -105 -26 -6 -32 -3 -43 22 -10 22 -10
28 0 32 6 2 12 10 12 18 0 8 8 27 19 42 10 15 44 67 76 116 31 49 64 100 72
113 18 27 27 27 -87 3 -106 -22 -191 -74 -311 -192 -64 -63 -122 -91 -156 -75
-13 5 -24 19 -25 31 -2 26 -5 49 -8 59 -1 4 -3 10 -4 15 -8 34 -20 51 -40 56
-24 6 -38 37 -32 66 9 38 19 60 27 60 5 0 9 5 9 11 0 24 128 167 168 188 21
11 24 10 35 -18 13 -36 33 -39 85 -12 44 23 67 44 147 136 71 80 92 102 123
122 21 15 24 14 47 -11 21 -23 31 -26 58 -20 28 6 73 29 87 44 13 14 97 76
120 89 138 76 185 85 245 50z"/>
</g>
</svg>
